<?xml version="1.0" encoding="utf-8"?>
<!-- Copyright 2020 by Northwoods Software -->
<!DOCTYPE svg PUBLIC "-//W3C//DTD SVG 1.1//EN" "http://www.w3.org/Graphics/SVG/1.1/DTD/svg11.dtd">
<svg version="1.1" xmlns="http://www.w3.org/2000/svg" xmlns:xlink="http://www.w3.org/1999/xlink" width="16" height="16" viewBox="0 0 16 16">
<!-- <path fill="#000000" d="M0 0 h1 v2 h4 L9 7 h4 v-1 l2 2 -2 2 v-1 h-4 L5 13 h-4 v2 h-1 v-5 h1 v2 h4 L7.5 7.5 5 3 h-4 v1 h-1 z"></path> -->
<!-- <path fill="#000000" d="M2 1 h1 v1 h1 v1 h-1 v1 h-1 v-1 h-1 v-1 h1 z"></path>-->
<path name="diamond" visibility="hidden" d="
M 1,0 L 0,1 L 1,2 L 2,1 L 1,0 z
" />
<path name="circle" visibility="hidden" d="
M 1,0 A 1,1, 180, 0,0, 1,2 A 1,1, 180, 0,0, 1,0 z
" />
<path name="square" visibility="hidden" d="
M 1,0 L 0,0 L 0,2 L 2,2 L 2,0 z
" />
<path name="star" visibility="hidden" d="
M 1,0 L 0.75,0.75 L 0,1 L 0.75,1.25 L 1,2 L 1.25,1.25 L 2,1 L 1.25,0.75 L 1,0 z
" />
<path name="hexagon" visibility="hidden" d="" />
<path name="octagon" visibility="hidden" d="" />
<path name="pentagon" visibility="hidden" d="" />
<!--
<path
d="
M 1,3
    A 2,2 0,0,1 5,3
    A 2,2 0,0,1 9,3
    Q 9,6 5,9
    Q 1,6 1,3 z
" />
-->
</svg>